# xmcd CD database file
#
# Track frame offsets:
#	187
#	6315
#	23290
#	43740
#	63422
#	79360
#	98980
#	113872
#	139007
#	154177
#	176910
#	195460
#	215792
#
# Disc length: 3666 seconds
#
# Revision: 3
# Processed by: cddbd v1.5.2PL0 Copyright (c) Steve Scherf et al.
# Submitted via: CDex 1.51
#
DISCID=b30e500d
DTITLE=MARILYN MANSON - PORTRAIT OF AN AMERICAN FAMILY
DYEAR=1994
DGENRE=Industrial Metal
TTITLE0=Prelude (The Family Trip)
TTITLE1=Cake And Sodomy
TTITLE2=Lunchbox
TTITLE3=Organ Grinder
TTITLE4=Cyclops
TTITLE5=Dope Hat
TTITLE6=Get Your Gunn
TTITLE7=Wrapped In Plastic
TTITLE8=Dogma
TTITLE9=Sweet Tooth
TTITLE10=Snake Eyes And Sissies
TTITLE11=My Monkey
TTITLE12=Misery Machine
EXTD=YEAR: 1994
EXTT0=
EXTT1=
EXTT2=
EXTT3=
EXTT4=
EXTT5=
EXTT6=
EXTT7=
EXTT8=
EXTT9=
EXTT10=
EXTT11=
EXTT12=
PLAYORDER=
